HIERARCHY
ROOT mixamorig:Hips
{
	OFFSET 0.000000 201.639420 0.000000
	CHANNELS 6 Xposition Yposition Zposition Xrotation Yrotation Zrotation
	JOINT mixamorig:Spine
	{
		OFFSET 0.006200 19.524994 -2.481800
		CHANNELS 3 Xrotation Yrotation Zrotation
		JOINT mixamorig:Spine1
		{
			OFFSET -0.000900 22.835007 -2.825400
			CHANNELS 3 Xrotation Yrotation Zrotation
			JOINT mixamorig:Spine2
			{
				OFFSET -0.020600 26.552490 -3.193300
				CHANNELS 3 Xrotation Yrotation Zrotation
				JOINT mixamorig:Neck
				{
					OFFSET -0.060000 30.701813 1.352200
					CHANNELS 3 Xrotation Yrotation Zrotation
					JOINT mixamorig:Head
					{
						OFFSET -0.087200 22.547607 3.670900
						CHANNELS 3 Xrotation Yrotation Zrotation
						JOINT mixamorig:HeadTop_End
						{
							OFFSET -0.830600 40.355194 7.893500
							CHANNELS 3 Xrotation Yrotation Zrotation
							End Site
							{
								OFFSET 0.000000 30.592346 0.000000
							}
						}
						JOINT mixamorig:RightEye
						{
							OFFSET -6.302100 18.118591 16.197100
							CHANNELS 3 Xrotation Yrotation Zrotation
							End Site
							{
								OFFSET 0.000000 30.592346 0.000000
							}
						}
						JOINT mixamorig:LeftEye
						{
							OFFSET 6.741500 18.382690 16.401899
							CHANNELS 3 Xrotation Yrotation Zrotation
							End Site
							{
								OFFSET 0.000000 30.592346 0.000000
							}
						}
					}
				}
				JOINT mixamorig:LeftShoulder
				{
					OFFSET 11.924900 18.230499 1.425400
					CHANNELS 3 Xrotation Yrotation Zrotation
					JOINT mixamorig:LeftArm
					{
						OFFSET 25.435989 -0.697632 -5.229300
						CHANNELS 3 Xrotation Yrotation Zrotation
						JOINT mixamorig:LeftForeArm
						{
							OFFSET 54.684776 0.000000 0.000000
							CHANNELS 3 Xrotation Yrotation Zrotation
							JOINT mixamorig:LeftHand
							{
								OFFSET 55.098175 0.000000 0.000000
								CHANNELS 3 Xrotation Yrotation Zrotation
								JOINT mixamorig:LeftHandMiddle1
								{
									OFFSET 23.369751 0.000000 0.000000
									CHANNELS 3 Xrotation Yrotation Zrotation
									JOINT mixamorig:LeftHandMiddle2
									{
										OFFSET 6.378677 0.000000 0.000000
										CHANNELS 3 Xrotation Yrotation Zrotation
										JOINT mixamorig:LeftHandMiddle3
										{
											OFFSET 6.148331 0.000000 0.000000
											CHANNELS 3 Xrotation Yrotation Zrotation
											JOINT mixamorig:LeftHandMiddle4
											{
												OFFSET 6.582504 0.000000 0.000000
												CHANNELS 3 Xrotation Yrotation Zrotation
												End Site
												{
													OFFSET -1.168900 6.395691 1.028606
												}
											}
										}
									}
								}
								JOINT mixamorig:LeftHandThumb1
								{
									OFFSET 7.235672 -3.848206 5.434273
									CHANNELS 3 Xrotation Yrotation Zrotation
									JOINT mixamorig:LeftHandThumb2
									{
										OFFSET 6.568451 -3.792297 3.792300
										CHANNELS 3 Xrotation Yrotation Zrotation
										JOINT mixamorig:LeftHandThumb3
										{
											OFFSET 6.063080 -3.500519 3.500518
											CHANNELS 3 Xrotation Yrotation Zrotation
											JOINT mixamorig:LeftHandThumb4
											{
												OFFSET 4.793182 -2.767334 2.767349
												CHANNELS 3 Xrotation Yrotation Zrotation
												End Site
												{
													OFFSET 0.101639 6.054260 1.275483
												}
											}
										}
									}
								}
								JOINT mixamorig:LeftHandIndex1
								{
									OFFSET 23.101074 -0.309540 4.992809
									CHANNELS 3 Xrotation Yrotation Zrotation
									JOINT mixamorig:LeftHandIndex2
									{
										OFFSET 6.226883 0.000000 0.000000
										CHANNELS 3 Xrotation Yrotation Zrotation
										JOINT mixamorig:LeftHandIndex3
										{
											OFFSET 6.094330 0.000000 0.000000
											CHANNELS 3 Xrotation Yrotation Zrotation
											JOINT mixamorig:LeftHandIndex4
											{
												OFFSET 5.482605 0.000000 0.000000
												CHANNELS 3 Xrotation Yrotation Zrotation
												End Site
												{
													OFFSET -1.427902 5.233032 0.797164
												}
											}
										}
									}
								}
								JOINT mixamorig:LeftHandRing1
								{
									OFFSET 22.299240 0.021149 -3.964172
									CHANNELS 3 Xrotation Yrotation Zrotation
									JOINT mixamorig:LeftHandRing2
									{
										OFFSET 6.321869 0.000000 0.000000
										CHANNELS 3 Xrotation Yrotation Zrotation
										JOINT mixamorig:LeftHandRing3
										{
											OFFSET 5.899796 0.000000 0.000000
											CHANNELS 3 Xrotation Yrotation Zrotation
											JOINT mixamorig:LeftHandRing4
											{
												OFFSET 6.517899 0.000000 0.000000
												CHANNELS 3 Xrotation Yrotation Zrotation
												End Site
												{
													OFFSET -1.637299 6.232208 0.980890
												}
											}
										}
									}
								}
								JOINT mixamorig:LeftHandPinky1
								{
									OFFSET 20.463791 -0.302338 -8.562233
									CHANNELS 3 Xrotation Yrotation Zrotation
									JOINT mixamorig:LeftHandPinky2
									{
										OFFSET 6.908646 0.000000 0.000000
										CHANNELS 3 Xrotation Yrotation Zrotation
										JOINT mixamorig:LeftHandPinky3
										{
											OFFSET 4.622849 0.000000 0.000000
											CHANNELS 3 Xrotation Yrotation Zrotation
											JOINT mixamorig:LeftHandPinky4
											{
												OFFSET 5.216080 0.000000 0.000000
												CHANNELS 3 Xrotation Yrotation Zrotation
												End Site
												{
													OFFSET -0.606308 5.116241 0.814926
												}
											}
										}
									}
								}
							}
						}
					}
				}
				JOINT mixamorig:RightShoulder
				{
					OFFSET -12.001300 18.284088 1.348900
					CHANNELS 3 Xrotation Yrotation Zrotation
					JOINT mixamorig:RightArm
					{
						OFFSET -25.308500 -0.751312 -5.164599
						CHANNELS 3 Xrotation Yrotation Zrotation
						JOINT mixamorig:RightForeArm
						{
							OFFSET -54.684429 0.000000 0.000000
							CHANNELS 3 Xrotation Yrotation Zrotation
							JOINT mixamorig:RightHand
							{
								OFFSET -55.150291 0.000000 0.000000
								CHANNELS 3 Xrotation Yrotation Zrotation
								JOINT mixamorig:RightHandMiddle1
								{
									OFFSET -23.317566 0.000000 0.000000
									CHANNELS 3 Xrotation Yrotation Zrotation
									JOINT mixamorig:RightHandMiddle2
									{
										OFFSET -6.378403 0.000000 0.000000
										CHANNELS 3 Xrotation Yrotation Zrotation
										JOINT mixamorig:RightHandMiddle3
										{
											OFFSET -6.148193 0.000000 0.000000
											CHANNELS 3 Xrotation Yrotation Zrotation
											JOINT mixamorig:RightHandMiddle4
											{
												OFFSET -6.583389 0.000000 0.000000
												CHANNELS 3 Xrotation Yrotation Zrotation
												End Site
												{
													OFFSET 1.171692 6.395905 1.029786
												}
											}
										}
									}
								}
								JOINT mixamorig:RightHandThumb1
								{
									OFFSET -7.190521 -3.860474 5.435846
									CHANNELS 3 Xrotation Yrotation Zrotation
									JOINT mixamorig:RightHandThumb2
									{
										OFFSET -6.567429 -3.791718 3.791708
										CHANNELS 3 Xrotation Yrotation Zrotation
										JOINT mixamorig:RightHandThumb3
										{
											OFFSET -6.062469 -3.500153 3.500166
											CHANNELS 3 Xrotation Yrotation Zrotation
											JOINT mixamorig:RightHandThumb4
											{
												OFFSET -4.792618 -2.767029 2.767022
												CHANNELS 3 Xrotation Yrotation Zrotation
												End Site
												{
													OFFSET -0.100327 6.053253 1.276754
												}
											}
										}
									}
								}
								JOINT mixamorig:RightHandIndex1
								{
									OFFSET -23.048981 -0.310791 4.992554
									CHANNELS 3 Xrotation Yrotation Zrotation
									JOINT mixamorig:RightHandIndex2
									{
										OFFSET -6.227539 0.000000 0.000000
										CHANNELS 3 Xrotation Yrotation Zrotation
										JOINT mixamorig:RightHandIndex3
										{
											OFFSET -6.095047 0.000000 0.000000
											CHANNELS 3 Xrotation Yrotation Zrotation
											JOINT mixamorig:RightHandIndex4
											{
												OFFSET -5.484772 0.000000 0.000000
												CHANNELS 3 Xrotation Yrotation Zrotation
												End Site
												{
													OFFSET 1.420593 5.237305 0.797056
												}
											}
										}
									}
								}
								JOINT mixamorig:RightHandRing1
								{
									OFFSET -22.246323 0.020569 -3.963762
									CHANNELS 3 Xrotation Yrotation Zrotation
									JOINT mixamorig:RightHandRing2
									{
										OFFSET -6.322128 0.000000 0.000000
										CHANNELS 3 Xrotation Yrotation Zrotation
										JOINT mixamorig:RightHandRing3
										{
											OFFSET -5.900024 0.000000 0.000000
											CHANNELS 3 Xrotation Yrotation Zrotation
											JOINT mixamorig:RightHandRing4
											{
												OFFSET -6.518356 0.000000 0.000000
												CHANNELS 3 Xrotation Yrotation Zrotation
												End Site
												{
													OFFSET 1.636398 6.232697 0.982186
												}
											}
										}
									}
								}
								JOINT mixamorig:RightHandPinky1
								{
									OFFSET -20.411011 -0.303314 -8.561701
									CHANNELS 3 Xrotation Yrotation Zrotation
									JOINT mixamorig:RightHandPinky2
									{
										OFFSET -6.907349 0.000000 0.000000
										CHANNELS 3 Xrotation Yrotation Zrotation
										JOINT mixamorig:RightHandPinky3
										{
											OFFSET -4.623840 0.000000 0.000000
											CHANNELS 3 Xrotation Yrotation Zrotation
											JOINT mixamorig:RightHandPinky4
											{
												OFFSET -5.218353 0.000000 0.000000
												CHANNELS 3 Xrotation Yrotation Zrotation
												End Site
												{
													OFFSET 0.602097 5.118835 0.816273
												}
											}
										}
									}
								}
							}
						}
					}
				}
			}
		}
	}
	JOINT mixamorig:LeftUpLeg
	{
		OFFSET 18.168400 -13.561905 -0.039000
		CHANNELS 3 Xrotation Yrotation Zrotation
		JOINT mixamorig:LeftLeg
		{
			OFFSET 0.577358 -80.825211 -3.695000
			CHANNELS 3 Xrotation Yrotation Zrotation
			JOINT mixamorig:LeftFoot
			{
				OFFSET -0.577356 -83.370262 -6.520700
				CHANNELS 3 Xrotation Yrotation Zrotation
				JOINT mixamorig:LeftToeBase
				{
					OFFSET 0.750401 -20.798306 25.135401
					CHANNELS 3 Xrotation Yrotation Zrotation
					JOINT mixamorig:LeftToe_End
					{
						OFFSET -0.000500 0.001200 19.917799
						CHANNELS 3 Xrotation Yrotation Zrotation
						End Site
						{
							OFFSET 0.000000 19.917805 0.000000
						}
					}
				}
			}
		}
	}
	JOINT mixamorig:RightUpLeg
	{
		OFFSET -18.162500 -13.585098 -0.041000
		CHANNELS 3 Xrotation Yrotation Zrotation
		JOINT mixamorig:RightLeg
		{
			OFFSET -0.595024 -80.945297 -3.631900
			CHANNELS 3 Xrotation Yrotation Zrotation
			JOINT mixamorig:RightFoot
			{
				OFFSET 0.595024 -83.218193 -6.561200
				CHANNELS 3 Xrotation Yrotation Zrotation
				JOINT mixamorig:RightToeBase
				{
					OFFSET -0.753601 -20.807106 25.115000
					CHANNELS 3 Xrotation Yrotation Zrotation
					JOINT mixamorig:RightToe_End
					{
						OFFSET 0.000299 0.001700 19.918200
						CHANNELS 3 Xrotation Yrotation Zrotation
						End Site
						{
							OFFSET 0.000000 19.918203 0.000000
						}
					}
				}
			}
		}
	}
}
MOTION
Frames: 4
Frame Time: 0.033333
-1.399614 269.357239 31.886154 -21.144252 -2.644329 -4.589572 7.690998 -0.064111 -0.323800 15.382057 0.128603 -0.436317 15.382061 0.128604 -0.436317 -14.915269 -2.693747 -0.421456 -22.365857 -1.222667 5.480552 0.000003 -0.000000 -0.000000 0.000003 -0.000000 -0.000000 0.000003 -0.000000 -0.000000 0.314107 -2.560928 38.986098 -55.828921 -24.925450 -15.140426 -15.946364 -42.852381 5.385289 15.598383 7.312419 38.810296 -10.129944 -3.870859 -67.774307 -1.770910 1.712495 -28.157808 -0.000000 0.000001 -0.000004 -0.000004 -0.000000 0.000000 -11.360174 -10.015421 28.397702 19.621090 23.755273 -10.341717 -0.000001 0.000002 -0.000009 0.000001 -0.000001 -0.000002 -7.847214 -3.445002 -67.091234 -4.890350 2.724764 -36.316570 0.000000 -0.000008 -0.000001 -0.000001 0.000000 -0.000000 -15.177594 7.295153 -70.201654 7.766219 -0.421211 -31.520053 -0.000010 -0.000002 -0.000000 -0.000002 -0.000000 0.000001 -16.482319 5.436046 -74.872827 8.342201 -0.186089 -18.883175 0.000000 0.000001 0.000003 -0.000002 0.000002 0.000002 7.587598 29.270140 -30.477151 -45.266560 6.932747 -7.635272 -24.301431 44.824667 1.425701 3.410391 4.574277 -39.126257 -6.652428 -3.924347 64.485708 9.406014 5.988750 38.253636 -0.000001 -0.000000 -0.000000 0.000000 0.000001 -0.000002 15.333556 1.500907 -10.491455 -10.396757 -3.067634 -10.223916 0.000005 -0.000004 0.000018 -0.000001 0.000000 -0.000001 0.919869 3.496427 64.452219 1.727765 9.561664 38.866286 0.000002 -0.000005 0.000005 0.000001 -0.000002 -0.000001 -5.546336 1.390169 64.784795 0.234008 -1.791467 39.151795 0.000001 0.000003 0.000005 -0.000001 -0.000002 -0.000001 -17.806363 -16.572303 61.043320 25.329468 3.861580 27.748058 0.000002 0.000000 -0.000004 -0.000002 0.000003 -0.000000 -90.740730 4.483617 32.405744 123.364322 -27.582766 -0.183207 -30.546382 -1.670400 11.605379 -45.356452 -5.615674 -0.256077 0.000000 -0.000000 0.000000 -105.504388 -8.722934 -32.761832 129.251631 14.467239 -1.632693 -28.887950 -1.155910 0.404499 -41.911875 6.092015 15.442212 0.000001 -0.000001 0.000000 
-1.573985 265.688171 32.511429 -21.636981 -3.836478 -4.248285 7.633491 -0.267037 -0.259114 15.267100 -0.266101 -0.323657 15.267088 -0.266101 -0.323657 -14.840058 -0.083754 -3.466497 -22.587917 -2.140717 7.441108 0.000002 0.000000 0.000000 0.000002 0.000000 0.000000 0.000002 0.000000 0.000000 0.660090 -4.895242 36.056384 -54.105408 -25.494473 -8.848565 -14.982636 -37.205174 3.453176 14.037668 4.150056 38.552672 -10.129933 -3.870882 -67.774287 -1.770911 1.712513 -28.157819 -0.000000 0.000001 -0.000004 -0.000000 0.000000 0.000001 -11.360188 -10.015417 28.397681 19.621112 23.755263 -10.341717 -0.000001 0.000003 -0.000009 0.000001 -0.000001 -0.000000 -7.847199 -3.445009 -67.091227 -4.890350 2.724747 -36.316563 -0.000000 -0.000008 0.000000 -0.000000 0.000000 -0.000000 -15.177606 7.295141 -70.201641 7.766215 -0.421199 -31.520059 -0.000010 -0.000002 -0.000004 -0.000002 0.000001 0.000002 -16.482326 5.436034 -74.872800 8.342199 -0.186088 -18.883175 0.000000 0.000001 0.000004 -0.000001 0.000000 0.000001 8.685952 27.662655 -33.553137 -44.739006 11.124533 -8.346509 -24.179997 38.770585 2.795689 1.174599 6.172188 -40.595127 -6.652436 -3.924351 64.485694 9.406022 5.988743 38.253639 0.000005 0.000000 -0.000000 0.000002 0.000001 0.000001 15.333549 1.500901 -10.491459 -10.396771 -3.067656 -10.223931 0.000006 -0.000003 0.000017 -0.000002 0.000000 -0.000001 0.919878 3.496411 64.452192 1.727773 9.561664 38.866280 -0.000000 -0.000004 0.000006 0.000001 -0.000002 -0.000001 -5.546330 1.390157 64.784788 0.234006 -1.791461 39.151795 0.000001 0.000001 0.000003 -0.000000 0.000000 0.000000 -17.806368 -16.572310 61.043306 25.329480 3.861585 27.748057 0.000004 -0.000001 -0.000003 -0.000001 0.000002 -0.000001 -92.536714 4.600053 35.000703 125.575500 -27.998530 -0.217785 -31.798540 -2.253715 12.685134 -43.792379 -6.112572 -0.537911 0.000001 0.000001 0.000000 -108.660387 -9.023702 -34.519626 131.108063 14.629548 -1.621281 -28.229701 0.697389 -2.750554 -40.747840 5.547007 15.854474 0.000001 -0.000001 -0.000001 
-1.549147 263.373688 32.723022 -21.829419 -4.315431 -3.494481 7.644931 -0.393978 -0.244043 15.290251 -0.494649 -0.274089 15.290248 -0.494650 -0.274089 -14.913599 1.373733 -5.216234 -22.487553 -2.941981 8.332910 -0.000000 0.000000 0.000000 -0.000000 0.000000 0.000000 -0.000000 0.000000 0.000000 0.703550 -6.046791 34.181029 -53.190583 -26.355530 -4.975662 -13.900339 -32.713761 2.465967 12.165334 1.453300 38.768420 -10.129925 -3.870849 -67.774280 -1.770914 1.712495 -28.157817 -0.000001 0.000002 -0.000004 -0.000002 0.000001 0.000001 -11.360187 -10.015397 28.397700 19.621100 23.755273 -10.341721 -0.000002 0.000002 -0.000007 0.000000 0.000000 -0.000001 -7.847200 -3.444991 -67.091247 -4.890343 2.724786 -36.316570 0.000001 -0.000008 0.000001 -0.000001 -0.000000 -0.000001 -15.177606 7.295151 -70.201647 7.766205 -0.421204 -31.520056 -0.000007 -0.000003 -0.000004 0.000001 0.000000 -0.000000 -16.482324 5.436044 -74.872807 8.342203 -0.186079 -18.883187 0.000001 0.000000 0.000003 -0.000002 0.000001 0.000001 9.336608 26.270866 -35.698995 -44.759087 13.484251 -8.969671 -24.090209 35.476276 3.234493 -0.095924 6.808712 -40.907045 -6.652412 -3.924338 64.485687 9.406017 5.988762 38.253656 0.000002 -0.000001 -0.000000 0.000001 0.000000 -0.000000 15.333570 1.500914 -10.491448 -10.396770 -3.067648 -10.223950 0.000005 -0.000003 0.000021 0.000000 -0.000000 0.000001 0.919887 3.496421 64.452192 1.727774 9.561659 38.866280 0.000000 -0.000004 0.000005 0.000002 -0.000002 -0.000002 -5.546302 1.390166 64.784795 0.234001 -1.791440 39.151788 -0.000002 0.000002 0.000002 -0.000001 0.000000 0.000000 -17.806358 -16.572295 61.043306 25.329470 3.861576 27.748055 0.000004 0.000002 -0.000004 0.000000 0.000001 -0.000001 -94.125389 5.183326 36.415652 126.912606 -27.446108 -0.188006 -31.245653 -3.051740 12.695011 -43.715150 -6.580311 -0.388164 -0.000001 0.000001 -0.000000 -111.032252 -8.386005 -36.568331 132.263212 15.928684 -1.608377 -27.278276 1.607799 -4.143834 -39.868531 5.962102 15.094802 0.000001 0.000001 0.000000 
-1.247142 262.489929 32.523888 -21.756002 -4.231181 -2.654032 7.630928 -0.419517 -0.262925 15.262326 -0.537165 -0.293371 15.262324 -0.537163 -0.293371 -14.422474 1.673248 -5.482796 -22.027645 -3.282679 7.971899 0.000004 -0.000000 0.000000 0.000004 -0.000000 0.000000 0.000004 -0.000000 0.000000 0.539519 -5.146953 34.429758 -52.973544 -27.294602 -4.869745 -13.547752 -29.526396 1.947575 10.051326 -0.485325 39.994152 -10.129932 -3.870871 -67.774266 -1.770919 1.712500 -28.157817 -0.000002 0.000002 -0.000003 -0.000002 -0.000000 -0.000000 -11.360181 -10.015401 28.397722 19.621100 23.755278 -10.341724 -0.000001 0.000003 -0.000006 0.000001 -0.000002 0.000001 -7.847221 -3.445001 -67.091213 -4.890357 2.724762 -36.316570 0.000000 -0.000007 0.000000 0.000001 0.000000 -0.000001 -15.177597 7.295148 -70.201641 7.766207 -0.421213 -31.520056 -0.000009 -0.000002 -0.000002 0.000000 -0.000001 -0.000000 -16.482322 5.436046 -74.872800 8.342197 -0.186119 -18.883175 -0.000001 -0.000000 0.000004 -0.000001 0.000000 0.000000 9.588200 25.407023 -36.734694 -44.936924 14.090136 -9.219747 -23.878674 34.509524 3.328854 -0.498700 6.773646 -40.845839 -6.652423 -3.924337 64.485708 9.406021 5.988782 38.253642 -0.000001 -0.000002 0.000000 0.000002 -0.000002 -0.000000 15.333566 1.500901 -10.491454 -10.396756 -3.067643 -10.223940 0.000005 -0.000003 0.000019 0.000000 -0.000000 0.000002 0.919879 3.496421 64.452179 1.727779 9.561678 38.866293 0.000002 -0.000005 0.000004 -0.000001 0.000002 -0.000002 -5.546333 1.390171 64.784781 0.233997 -1.791459 39.151788 0.000000 0.000001 0.000003 -0.000001 0.000001 -0.000001 -17.806370 -16.572301 61.043313 25.329487 3.861565 27.748074 0.000004 0.000004 -0.000003 -0.000002 0.000000 -0.000001 -94.799460 5.956081 36.110435 127.191059 -27.151954 -0.183393 -30.562754 -3.508852 12.631094 -43.944740 -6.128234 0.186684 -0.000001 0.000001 -0.000001 -111.857202 -7.192715 -38.107172 132.559560 19.000799 -1.637184 -27.461696 1.447191 -4.050519 -38.383279 6.330361 13.021941 -0.000001 0.000002 -0.000001 
